<?xml version="1.0" encoding="UTF-8"?>
<svg width="553px" height="55px" viewBox="0 0 553 55" version="1.1" xmlns="http://www.w3.org/2000/svg" xmlns:xlink="http://www.w3.org/1999/xlink">
    <title>CampingWorld</title>
    <g id="Page-2" stroke="none" stroke-width="1" fill="none" fill-rule="evenodd">
        <g id="CampingWorld" fill="#1D2E3B" fill-rule="nonzero">
            <path d="M74.92,53.48 L71.03,42.59 L54.69,42.59 L50.88,53.48 L39.52,53.48 L59.05,0.82 L67.37,0.82 L86.9,53.48 L74.92,53.48 Z M64.5,22.52 C63.95,21.05 63.41,19.08 62.94,17.2 L62.79,17.2 C62.4,19.08 61.78,21.05 61.23,22.52 L57.65,33 L68.08,33 L64.5,22.52 Z" id="Shape"></path>
            <path d="M135.64,53.48 L134.01,34.23 C133.78,31.2 133.54,27.92 133.54,24.57 L133.39,24.57 C132.22,27.93 130.67,31.45 129.19,34.48 L119.85,53.64 L115.03,53.64 L105.62,34.48 C104.14,31.45 102.66,28.01 101.42,24.65 L101.26,24.65 C101.26,28.09 101.03,31.29 100.79,34.23 L99.23,53.48 L87.64,53.48 L91.92,1.23 L101.72,1.23 L112.54,23.18 C114.02,26.21 116.2,30.88 117.52,34.32 L117.67,34.32 C118.92,30.88 120.71,26.79 122.42,23.18 L133.16,1.23 L143.04,1.23 L147.47,53.48 L135.64,53.48 Z" id="Path"></path>
            <path d="M168.67,32.92 L162.06,32.92 L162.06,53.48 L150.47,53.48 L150.47,1.23 L168.68,1.23 C177.24,1.23 184.71,7.21 184.71,17.04 C184.69,26.86 177.22,32.92 168.67,32.92 Z M166.96,11.22 L162.06,11.22 L162.06,22.93 L166.96,22.93 C170.07,22.93 173.18,21.13 173.18,17.03 C173.18,13.1 170.07,11.22 166.96,11.22 Z" id="Shape"></path>
            <polygon id="Path" points="187.72 53.48 187.72 1.23 199.78 1.23 199.78 53.48"></polygon>
            <path d="M243.59,54.05 L224.3,31.77 C221.19,28.17 217.69,23.74 215.04,20.3 L214.89,20.38 C215.04,24.07 215.12,28.08 215.12,31.36 L215.12,53.47 L203.06,53.47 L203.06,1.23 L212.78,1.23 L229.59,20.72 C231.92,23.42 235.43,27.68 237.68,30.71 L237.84,30.63 C237.68,27.52 237.61,24.16 237.61,20.88 L237.61,1.23 L249.67,1.23 L249.67,54.06 L243.59,54.06 L243.59,54.05 Z" id="Path"></path>
            <path d="M279.54,54.71 C265.85,54.71 252,45.21 252,27.36 C252,9.34 266.16,0.01 279.23,0.01 C286.15,0.01 291.6,1.81 295.02,4.19 L294.09,15.33 C290.67,12.71 285.92,10.99 280.48,10.99 C271.45,10.99 263.98,17.38 263.98,27.7 C263.98,37.53 271.06,43.91 280.09,43.91 C282.97,43.91 285.15,43.42 286.86,42.36 L286.86,34.99 L277.83,34.99 L277.83,25.24 L297.9,25.24 L297.9,49.3 C293.7,52.83 287.55,54.71 279.54,54.71 Z" id="Path"></path>
            <path d="M363.1,53.81 L355.4,53.81 L348.16,30.71 C347.07,27.19 345.98,23.67 344.89,19.08 L344.73,19.08 C343.64,23.66 342.55,27.27 341.46,30.71 L334.22,53.81 L326.52,53.81 L309.95,1.23 L321.54,1.23 L328,22.36 C329.01,25.56 329.95,28.91 330.65,32.84 L330.81,32.84 C331.59,28.91 332.44,25.63 333.45,22.36 L339.98,1.23 L350.41,1.23 L356.87,22.28 C357.73,25.15 358.66,29.08 359.44,32.85 L359.59,32.85 C360.29,29.08 361.3,25.4 362.24,22.37 L368.85,1.24 L379.66,1.24 L363.1,53.81 Z" id="Path"></path>
            <path d="M402.67,54.71 C388.98,54.71 375.98,44.14 375.98,27.28 C375.98,10.57 388.97,0.01 402.67,0.01 C416.44,0.01 429.430006,10.57 429.430006,27.28 C429.44,44.14 416.44,54.71 402.67,54.71 Z M402.67,11.14 C395.2,11.14 388.2,17.53 388.2,27.27 C388.2,37.1 395.2,43.49 402.67,43.49 C410.14,43.49 417.22,37.1 417.22,27.27 C417.22,17.53 410.14,11.14 402.67,11.14 Z" id="Shape"></path>
            <path d="M462.14,53.48 L448.76,32.92 L444.48,32.92 L444.48,53.48 L432.89,53.48 L432.89,1.23 L451.41,1.23 C459.89,1.23 467.44,7.21 467.44,17.04 C467.44,23.18 464.02,28.1 459.82,30.14 L475.61,53.48 L462.14,53.48 Z M449.62,11.22 L444.49,11.22 L444.49,22.93 L449.62,22.93 C452.73,22.93 455.84,21.13 455.84,17.03 C455.84,13.1 452.73,11.22 449.62,11.22 Z" id="Shape"></path>
            <polygon id="Path" points="475.82 53.48 475.82 1.23 487.88 1.23 487.88 42.59 507.8 42.59 507.8 53.48"></polygon>
            <path d="M526.24,53.48 L509.51,53.48 L509.51,1.23 L526.24,1.23 C540.55,1.23 552.85,11.06 552.85,27.36 C552.85,43.66 540.55,53.48 526.24,53.48 Z M524.84,12.12 L521.11,12.12 L521.11,42.59 L524.84,42.59 C533.48,42.59 540.79,37.51 540.79,27.36 C540.79,17.2 533.47,12.12 524.84,12.12 Z" id="Shape"></path>
            <path d="M28.86,43.65 C19.45,43.65 12.21,37.18 12.21,27.35 C12.21,17.44 19.45,10.97 28.47,10.97 C33.84,10.97 37.73,12.53 40.3,14.25 L41.16,3.19 C38.2,1.39 33.3,0 27.08,0 C14.09,0 0,9.34 0,27.35 C0,45.29 14,54.7 27.08,54.7 C30.79,54.7 33.81,54.29 36.24,53.57 L41.07,40.54 C38.34,42.43 34.22,43.65 28.86,43.65 Z" id="Path"></path>
            <path d="M548.6,53.12 C546.97,53.12 545.71,51.84 545.71,50.11 C545.71,48.36 546.96,47.1 548.6,47.1 C550.22,47.1 551.49,48.36 551.49,50.11 C551.49,51.84 550.22,53.12 548.6,53.12 Z M548.6,47.75 C547.33,47.75 546.37,48.73 546.37,50.11 C546.37,51.47 547.33,52.45 548.6,52.45 C549.85,52.45 550.81,51.46 550.81,50.11 C550.82,48.73 549.86,47.75 548.6,47.75 Z M549.43,51.89 L548.58,50.56 L548.33,50.56 L548.33,51.86 L547.57,51.86 L547.57,48.35 L548.64,48.35 C549.22,48.35 549.81,48.76 549.81,49.46 C549.81,49.85 549.6,50.17 549.33,50.35 L550.09,51.46 L549.43,51.89 Z M548.57,49.04 L548.33,49.04 L548.33,49.87 L548.57,49.87 C548.81,49.87 549.01,49.74 549.01,49.46 C549.01,49.17 548.81,49.04 548.57,49.04 Z" id="Shape"></path>
        </g>
    </g>
</svg>