<?xml version="1.0" encoding="UTF-8"?>
<svg width="537px" height="52px" viewBox="0 0 537 52" version="1.1" xmlns="http://www.w3.org/2000/svg" xmlns:xlink="http://www.w3.org/1999/xlink">
    <title>Group 7</title>
    <defs>
        <linearGradient x1="50%" y1="19.9822672%" x2="50%" y2="127.537816%" id="linearGradient-1">
            <stop stop-color="#1D2E3B" offset="0%"></stop>
            <stop stop-color="#7F98A9" offset="99.9207823%"></stop>
        </linearGradient>
    </defs>
    <g id="Page-2" stroke="none" stroke-width="1" fill="none" fill-rule="evenodd">
        <g id="Group-7" transform="translate(0.715820, 0.000000)">
            <polygon id="Path-6-Copy" fill="url(#linearGradient-1)" points="3.31257645e-17 32.2890625 -5.43035978e-14 0.347900391 25.5478516 20.7915039 51.1098633 0.347900391 51.1098633 32.2890625 41.784668 32.2890625 41.784668 18.9941406 25.5549316 32.2890625 8.93115234 18.9941406 8.93115234 32.2890625"></polygon>
            <g id="MASTERMIND" transform="translate(115.800180, 11.982000)" fill="#1D2E3B" fill-rule="nonzero">
                <polygon id="Path" points="22.916 23.018 22.916 0.34 18.054 0.34 11.458 16.626 4.862 0.34 0 0.34 0 23.018 3.4 23.018 3.4 4.998 10.744 23.018 12.172 23.018 19.516 4.998 19.516 23.018"></polygon>
                <path d="M63.407714,23.018 L54.397714,0.34 L50.147714,0.34 L41.137714,23.018 L44.877714,23.018 L46.713714,18.326 L57.831714,18.326 L59.667714,23.018 L63.407714,23.018 Z M56.845714,15.3 L47.699714,15.3 L52.255714,3.298 L56.845714,15.3 Z" id="Shape"></path>
                <path d="M79.861428,19.822 C81.799428,21.964 84.757428,23.426 88.803428,23.426 C94.923428,23.426 97.371428,20.128 97.371428,16.592 C97.371428,11.764 93.053428,10.608 89.347428,9.622 C86.525428,8.908 84.077428,8.262 84.077428,6.222 C84.077428,4.318 85.811428,3.026 88.327428,3.026 C90.775428,3.026 93.155428,3.842 94.889428,5.678 L96.861428,3.162 C94.855428,1.122 92.101428,0 88.599428,0 C83.873428,0 80.575428,2.72 80.575428,6.46 C80.575428,11.084 84.791428,12.138 88.429428,13.09 C91.319428,13.838 93.903428,14.518 93.903428,16.898 C93.903428,18.53 92.611428,20.4 88.939428,20.4 C85.777428,20.4 83.329428,18.904 81.799428,17.204 L79.861428,19.822 Z" id="Path"></path>
                <polygon id="Path" points="125.521142 23.018 125.521142 3.332 132.525142 3.332 132.525142 0.34 115.083142 0.34 115.083142 3.332 122.121142 3.332 122.121142 23.018"></polygon>
                <polygon id="Path" points="166.828856 23.018 166.828856 20.026 154.996856 20.026 154.996856 12.954 166.590856 12.954 166.590856 9.962 154.996856 9.962 154.996856 3.332 166.828856 3.332 166.828856 0.34 151.596856 0.34 151.596856 23.018"></polygon>
                <path d="M203.61457,23.018 L197.80057,13.94 C200.69057,13.566 203.44457,11.39 203.44457,7.31 C203.44457,3.128 200.48657,0.34 196.16857,0.34 L186.61457,0.34 L186.61457,23.018 L190.01457,23.018 L190.01457,14.28 L194.26457,14.28 L199.67057,23.018 L203.61457,23.018 Z M199.94257,7.31 C199.94257,9.69 198.17457,11.288 195.72657,11.288 L190.01457,11.288 L190.01457,3.332 L195.72657,3.332 C198.17457,3.332 199.94257,4.93 199.94257,7.31 Z" id="Shape"></path>
                <polygon id="Path" points="246.078284 23.018 246.078284 0.34 241.216284 0.34 234.620284 16.626 228.024284 0.34 223.162284 0.34 223.162284 23.018 226.562284 23.018 226.562284 4.998 233.906284 23.018 235.334284 23.018 242.678284 4.998 242.678284 23.018"></polygon>
                <polygon id="Path" points="270.045998 23.018 270.045998 0.34 266.645998 0.34 266.645998 23.018"></polygon>
                <polygon id="Path" points="309.891712 23.018 309.891712 0.34 306.491712 0.34 306.491712 17.34 294.149712 0.34 290.647712 0.34 290.647712 23.018 294.047712 23.018 294.047712 5.61 306.593712 23.018"></polygon>
                <path d="M338.551426,23.018 C345.623426,23.018 350.315426,18.258 350.315426,11.696 C350.315426,5.168 345.623426,0.34 338.551426,0.34 L330.459426,0.34 L330.459426,23.018 L338.551426,23.018 Z M333.859426,3.332 L338.551426,3.332 C343.889426,3.332 346.813426,7.038 346.813426,11.696 C346.813426,16.286 343.787426,20.026 338.551426,20.026 L333.859426,20.026 L333.859426,3.332 Z" id="Shape"></path>
            </g>
            <g id=".COM" transform="translate(484.236180, 23.474000)" fill="#1D2E3B" fill-rule="nonzero">
                <path d="M0,10.642 C0,11.22 0.476,11.713 1.054,11.713 C1.632,11.713 2.125,11.22 2.125,10.642 C2.125,10.064 1.632,9.588 1.054,9.588 C0.476,9.588 0,10.064 0,10.642 Z" id="Path"></path>
                <path d="M13.4911903,11.73 C15.7181903,11.73 17.0951903,10.659 17.9961903,9.333 L16.5511903,8.568 C15.9561903,9.52 14.8341903,10.217 13.4911903,10.217 C11.1961903,10.217 9.42819029,8.398 9.42819029,5.865 C9.42819029,3.315 11.1961903,1.513 13.4911903,1.513 C14.8341903,1.513 15.9561903,2.21 16.5511903,3.162 L17.9961903,2.397 C17.1121903,1.071 15.7181903,0 13.4911903,0 C10.2611903,0 7.67719029,2.38 7.67719029,5.865 C7.67719029,9.35 10.2611903,11.73 13.4911903,11.73 Z" id="Path"></path>
                <path d="M23.0213806,5.865 C23.0213806,9.231 25.3503806,11.73 28.7333806,11.73 C32.1163806,11.73 34.4453806,9.231 34.4453806,5.865 C34.4453806,2.499 32.1163806,0 28.7333806,0 C25.3503806,0 23.0213806,2.499 23.0213806,5.865 Z M32.6943806,5.865 C32.6943806,8.347 31.1303806,10.217 28.7333806,10.217 C26.3023806,10.217 24.7723806,8.347 24.7723806,5.865 C24.7723806,3.366 26.3023806,1.513 28.7333806,1.513 C31.1303806,1.513 32.6943806,3.366 32.6943806,5.865 Z" id="Shape"></path>
                <polygon id="Path" points="51.7615709 11.526 51.7615709 0.187 49.3305709 0.187 46.0325709 8.33 42.7345709 0.187 40.3035709 0.187 40.3035709 11.526 42.0035709 11.526 42.0035709 2.516 45.6755709 11.526 46.3895709 11.526 50.0615709 2.516 50.0615709 11.526"></polygon>
            </g>
            <rect id="Rectangle" fill="#1D2E3B" x="80.2841797" y="0" width="2" height="51"></rect>
            <polygon id="Path-6" fill="#1D2E3B" points="3.31257645e-17 51.2890625 -5.43035978e-14 19.3479004 25.5478516 39.7915039 51.1098633 19.3479004 51.1098633 51.2890625 41.784668 51.2890625 41.784668 37.9941406 25.5549316 51.2890625 8.93115234 37.9941406 8.93115234 51.2890625"></polygon>
        </g>
    </g>
</svg>