<?xml version="1.0" encoding="UTF-8"?>
<svg width="588px" height="90px" viewBox="0 0 588 90" version="1.1" xmlns="http://www.w3.org/2000/svg" xmlns:xlink="http://www.w3.org/1999/xlink">
    <title>Group 6</title>
    <g id="Page-2" stroke="none" stroke-width="1" fill="none" fill-rule="evenodd">
        <g id="Group-6" transform="translate(0.920024, 0.960000)" fill="#1D2E3B">
            <g id="lady" transform="translate(157.839976, 0.000000)" fill-rule="nonzero">
                <polygon id="Path" points="15.936 71.04 15.936 0 0 0 0 71.04"></polygon>
                <path d="M81.7097143,71.04 L81.7097143,17.76 L65.7737143,17.76 L65.7737143,23.424 L65.5817143,23.424 C62.5097143,18.528 56.4617143,15.936 49.9337143,15.936 C34.6697143,15.936 23.2457143,28.608 23.2457143,44.352 C23.2457143,60.48 34.1897143,72.864 49.9337143,72.864 C56.9417143,72.864 63.2777143,69.984 65.5817143,65.28 L65.7737143,65.28 L65.7737143,71.04 L81.7097143,71.04 Z M52.4297143,57.984 C45.0377143,57.984 39.1817143,51.936 39.1817143,44.544 C39.1817143,36.864 44.9417143,30.816 52.2377143,30.816 C59.7257143,30.816 65.7737143,36.864 65.7737143,44.352 C65.7737143,52.032 59.9177143,57.984 52.4297143,57.984 Z" id="Shape"></path>
                <path d="M147.099429,71.04 L147.099429,0 L131.163429,0 L131.163429,22.272 C126.651429,17.76 121.659429,15.936 115.515429,15.936 C99.9634286,15.936 89.1154286,28.32 89.1154286,44.256 C89.1154286,60.384 99.6754286,72.768 115.803429,72.768 C123.387429,72.768 128.763429,70.176 131.739429,65.28 L131.931429,65.28 L131.931429,71.04 L147.099429,71.04 Z M118.395429,57.888 C110.715429,57.888 105.051429,52.224 105.051429,44.16 C105.051429,36.384 111.003429,30.816 118.491429,30.816 C126.363429,30.816 132.027429,36.768 132.027429,44.16 C132.027429,52.032 126.171429,57.888 118.395429,57.888 Z" id="Shape"></path>
                <polygon id="Path" points="179.465143 88.8 206.153143 17.76 189.257143 17.76 179.081143 48.672 178.889143 48.672 168.233143 17.76 151.241143 17.76 171.017143 68.352 162.569143 88.8"></polygon>
            </g>
            <g id="boss" transform="translate(371.511976, 0.000000)" fill-rule="nonzero">
                <path d="M9.888,71.04 L9.888,63.36 L10.08,63.36 C14.496,69.312 21.6,72.384 29.28,72.384 C44.256,72.384 55.968,59.328 55.968,44.448 C55.968,29.088 43.488,16.416 28.416,16.416 C21.216,16.416 14.496,19.392 10.176,25.248 L9.984,25.248 L9.984,0 L-2.27373675e-13,0 L-2.27373675e-13,71.04 L9.888,71.04 Z M27.84,63.264 C17.664,63.264 9.696,54.816 9.696,44.256 C9.696,34.176 17.856,25.536 27.744,25.536 C38.016,25.536 45.984,34.368 45.984,44.448 C45.984,54.816 37.632,63.264 27.84,63.264 Z" id="Shape"></path>
                <path d="M118.957714,44.832 C119.149714,27.936 105.325714,16.416 90.6377143,16.416 C74.3177143,16.416 61.5497143,28.416 61.5497143,44.64 C61.5497143,59.616 74.8937143,72.384 89.8697143,72.384 C106.861714,72.384 118.765714,59.04 118.957714,44.832 Z M108.973714,44.256 C108.973714,55.008 100.429714,63.264 89.9657143,63.264 C79.8857143,63.264 71.5337143,54.432 71.5337143,44.352 C71.5337143,33.984 80.1737143,25.536 90.1577143,25.536 C100.621714,25.536 108.973714,33.888 108.973714,44.256 Z" id="Shape"></path>
                <path d="M158.331429,31.968 C158.043429,22.56 150.843429,16.416 142.011429,16.416 C133.275429,16.416 125.307429,22.656 125.307429,32.064 C125.307429,38.112 127.515429,43.776 140.571429,47.904 C146.811429,49.92 149.595429,52.32 149.595429,55.968 C149.595429,60.288 146.523429,63.264 141.915429,63.264 C136.635429,63.264 133.371429,60 132.891429,53.568 L122.907429,53.568 C122.907429,65.856 132.123429,72.384 141.723429,72.384 C152.091429,72.384 159.579429,65.664 159.579429,55.392 C159.579429,45.504 152.667429,40.992 145.179429,38.688 C139.899429,37.056 135.291429,35.712 135.291429,31.2 C135.291429,28.128 137.691429,25.536 141.531429,25.536 C145.659429,25.536 147.867429,28.128 148.347429,31.968 L158.331429,31.968 Z" id="Path"></path>
                <path d="M197.321143,31.968 C197.033143,22.56 189.833143,16.416 181.001143,16.416 C172.265143,16.416 164.297143,22.656 164.297143,32.064 C164.297143,38.112 166.505143,43.776 179.561143,47.904 C185.801143,49.92 188.585143,52.32 188.585143,55.968 C188.585143,60.288 185.513143,63.264 180.905143,63.264 C175.625143,63.264 172.361143,60 171.881143,53.568 L161.897143,53.568 C161.897143,65.856 171.113143,72.384 180.713143,72.384 C191.081143,72.384 198.569143,65.664 198.569143,55.392 C198.569143,45.504 191.657143,40.992 184.169143,38.688 C178.889143,37.056 174.281143,35.712 174.281143,31.2 C174.281143,28.128 176.681143,25.536 180.521143,25.536 C184.649143,25.536 186.857143,28.128 187.337143,31.968 L197.321143,31.968 Z" id="Path"></path>
            </g>
            <g id="®" transform="translate(576.313976, 16.264000)" fill-rule="nonzero">
                <path d="M7.319,7.852 C7.202,7.657 7.137,7.293 7.137,6.76 C7.137,5.668 6.877,5.317 6.188,5.122 L6.188,5.096 C6.903,4.914 7.241,4.433 7.241,3.718 C7.241,2.717 6.526,2.171 5.265,2.171 L2.847,2.171 L2.847,7.852 L3.822,7.852 L3.822,5.577 L5.005,5.577 C5.889,5.577 6.175,5.837 6.175,6.877 C6.175,7.28 6.24,7.709 6.344,7.852 L7.319,7.852 Z M3.822,4.667 L3.822,3.094 L5.2,3.094 C5.967,3.094 6.266,3.406 6.266,3.809 C6.266,4.329 5.889,4.667 5.109,4.667 L3.822,4.667 Z M4.979,9.932 C7.8,9.932 9.932,7.618 9.932,4.927 C9.932,2.34 7.826,-2.27373675e-13 4.979,-2.27373675e-13 C2.262,-2.27373675e-13 0,2.197 0,4.927 C0,7.735 2.236,9.932 4.979,9.932 Z M5.005,8.944 C2.639,8.944 1.04,7.02 1.04,4.979 C1.04,2.886 2.639,0.988 5.005,0.988 C7.02,0.988 8.892,2.691 8.892,4.927 C8.892,7.306 7.02,8.944 5.005,8.944 Z" id="Shape"></path>
            </g>
            <polygon id="Path-2" points="0.836323712 70.3739844 135.572164 0.04 135.572164 44.6765422"></polygon>
            <polygon id="Path-3" points="102.244568 54.9220236 135.572164 48.10972 135.572164 71.04"></polygon>
            <polygon id="Path-4" points="86.3773393 21.9804297 68.7799423 1.19688851 0.836323712 66.5238867"></polygon>
            <polygon id="Path-5" points="41.0448198 22.3949805 1.02022179e-15 1.19688851 -6.21841097e-15 62.4477148"></polygon>
        </g>
    </g>
</svg>