<?xml version="1.0" encoding="UTF-8"?>
<svg width="1063px" height="87px" viewBox="0 0 1063 87" version="1.1" xmlns="http://www.w3.org/2000/svg" xmlns:xlink="http://www.w3.org/1999/xlink">
    <title>Brands-Tony-Robbins</title>
    <g id="Page-2" stroke="none" stroke-width="1" fill="none" fill-rule="evenodd">
        <g id="Brands-Tony-Robbins" fill="#1D2E3B" fill-rule="nonzero">
            <polygon id="Path" points="24.5 85.3 24.5 17.1 0 17.1 0 1.4 66.9 1.4 66.9 17.1 42.5 17.1 42.5 85.3"></polygon>
            <path d="M85.2,43.4 C85.2,18.1 103.7,0 129.1,0 C154.4,0 172.9,18.1 172.9,43.4 C172.9,68.7 154.4,86.8 129.1,86.8 C103.6,86.8 85.2,68.7 85.2,43.4 Z M154.5,43.4 C154.5,27.7 144.6,15.9 129.1,15.9 C113.5,15.9 103.6,27.7 103.6,43.4 C103.6,59 113.5,71 129.1,71 C144.5,70.9 154.5,59 154.5,43.4 Z" id="Shape"></path>
            <polygon id="Path" points="257.1 85.3 217.1 30.6 217.1 85.3 199.2 85.3 199.2 1.4 217.6 1.4 256.5 54.1 256.5 1.4 274.4 1.4 274.4 85.3"></polygon>
            <polygon id="Path" points="328.2 85.3 328.2 50.9 296 1.4 316.4 1.4 337.2 35 358 1.4 378.3 1.4 346 50.9 346 85.2 328.2 85.2"></polygon>
            <path d="M493.3,85.3 L476.8,55.5 L463.7,55.5 L463.7,85.3 L445.8,85.3 L445.8,1.4 L485.1,1.4 C502.6,1.4 513.4,12.8 513.4,28.4 C513.4,43.1 504,51.2 494.9,53.3 L513.9,85.3 L493.3,85.3 Z M495.1,28.3 C495.1,21.4 489.7,17.1 482.6,17.1 L463.7,17.1 L463.7,39.7 L482.6,39.7 C489.7,39.7 495.1,35.4 495.1,28.3 Z" id="Shape"></path>
            <path d="M536.6,43.4 C536.6,18.1 555.1,0 580.5,0 C605.8,0 624.3,18.1 624.3,43.4 C624.3,68.7 605.8,86.8 580.5,86.8 C555.1,86.8 536.6,68.7 536.6,43.4 Z M605.9,43.4 C605.9,27.7 596,15.9 580.5,15.9 C564.9,15.9 555,27.7 555,43.4 C555,59 564.9,71 580.5,71 C596,70.9 605.9,59 605.9,43.4 Z" id="Shape"></path>
            <path d="M650.7,85.3 L650.7,1.4 L694.9,1.4 C710.9,1.4 719.1,11.6 719.1,22.8 C719.1,33.2 712.6,40.4 704.6,42 C713.7,43.4 720.7,52.1 720.7,62.5 C720.7,75.2 712.4,85.3 696.3,85.3 L650.7,85.3 Z M700.7,25.9 C700.7,20.7 696.9,17.1 690.9,17.1 L668.5,17.1 L668.5,34.7 L690.9,34.7 C697,34.7 700.7,31.3 700.7,25.9 Z M702.4,60 C702.4,54.7 698.6,50.4 691.7,50.4 L668.6,50.4 L668.6,69.5 L691.7,69.5 C698.3,69.5 702.4,66 702.4,60 Z" id="Shape"></path>
            <path d="M747.9,85.3 L747.9,1.4 L792,1.4 C808,1.4 816.2,11.6 816.2,22.8 C816.2,33.2 809.7,40.4 801.7,42 C810.8,43.4 817.8,52.1 817.8,62.5 C817.8,75.2 809.5,85.3 793.4,85.3 L747.9,85.3 Z M798,25.9 C798,20.7 794.2,17.1 788.2,17.1 L765.8,17.1 L765.8,34.7 L788.2,34.7 C794.2,34.7 798,31.3 798,25.9 Z M799.6,60 C799.6,54.7 795.8,50.4 788.9,50.4 L765.8,50.4 L765.8,69.5 L788.9,69.5 C795.6,69.5 799.6,66 799.6,60 Z" id="Shape"></path>
            <polygon id="Path" points="845.1 85.3 845.1 1.4 863 1.4 863 85.3"></polygon>
            <polygon id="Path" points="951.3 85.3 911.3 30.6 911.3 85.3 893.4 85.3 893.4 1.4 911.8 1.4 950.7 54.1 950.7 1.4 968.6 1.4 968.6 85.3"></polygon>
            <path d="M993.2,73.4 L1003,59.4 C1008.9,65.6 1018.1,70.8 1029.7,70.8 C1039.6,70.8 1044.3,66.4 1044.3,61.5 C1044.3,46.9 996,57.1 996,25.5 C996,11.5 1008.1,7.10542736e-15 1027.8,7.10542736e-15 C1041.1,7.10542736e-15 1052.2,4 1060.5,11.7 L1050.6,25 C1043.8,18.7 1034.7,15.8 1026.2,15.8 C1018.7,15.8 1014.4,19.1 1014.4,24.1 C1014.4,37.3 1062.6,28.4 1062.6,59.7 C1062.6,75 1051.5,86.6 1029,86.6 C1012.7,86.8 1001.1,81.4 993.2,73.4 Z" id="Path"></path>
        </g>
    </g>
</svg>