<svg width="29" height="29" viewBox="0 0 29 29" fill="none" xmlns="http://www.w3.org/2000/svg">
<path fill-rule="evenodd" clip-rule="evenodd" d="M9.733 2.991C10.436 1.293 12.332 0 14.5 0C16.668 0 18.564 1.293 19.267 2.991C20.965 2.287 23.22 2.714 24.753 4.247C26.286 5.78 26.713 8.035 26.009 9.733C27.707 10.436 29 12.332 29 14.5C29 16.668 27.707 18.564 26.009 19.267C26.713 20.965 26.286 23.22 24.753 24.753C23.22 26.286 20.965 26.713 19.267 26.009C18.564 27.707 16.668 29 14.5 29C12.332 29 10.436 27.707 9.733 26.009C8.035 26.713 5.78 26.286 4.247 24.753C2.714 23.22 2.287 20.965 2.991 19.267C1.293 18.564 0 16.668 0 14.5C0 12.332 1.293 10.436 2.991 9.733C2.287 8.035 2.714 5.78 4.247 4.247C5.78 2.714 8.035 2.287 9.733 2.991ZM11.707 16.766C11.777 16.687 11.795 16.634 11.899 16.484C12.497 15.613 14.27 13.265 16.522 11.459C17.503 10.674 18.562 9.959 19.499 9.491C21.061 8.711 21.564 8.615 22.289 8.446C22.427 8.414 22.926 8.325 23.009 8.522C23.089 8.712 22.777 8.912 22.661 9.003C22.529 9.106 19.527 11.351 17.002 14.685C14.804 17.586 13.366 21.391 13.366 21.391C13.322 21.476 12.822 22.369 12.152 22.413C11.532 22.453 10.736 21.647 10.736 21.647C10.583 21.504 9.837 20.619 9.216 19.523C8.425 18.127 7.743 16.472 7.743 16.472C7.743 16.472 7.035 15.079 8.369 14.314C9.685 13.559 10.271 14.325 10.557 14.778C10.801 15.165 11.292 16.104 11.53 16.564C11.613 16.724 11.666 16.813 11.707 16.766Z" fill="#2690e5"/>
</svg>
