<svg width="24" height="30" viewBox="0 0 24 30" fill="none" xmlns="http://www.w3.org/2000/svg">
<path fill-rule="evenodd" clip-rule="evenodd" d="M11.8032 29.054L11.7912 29.063C5.11215 25.101 -0.980845 20.338 0.132155 3.802C5.19215 3.505 7.48415 2.837 11.8392 0L11.9402 0.066C16.2292 2.848 18.5242 3.508 23.5452 3.802C24.6582 20.338 18.5652 25.101 11.8862 29.063L11.8392 29.03L11.8032 29.054ZM9.59615 16.715C9.66615 16.636 9.68415 16.584 9.78715 16.433C10.3862 15.562 12.1592 13.214 14.4112 11.409C15.3912 10.623 16.4512 9.908 17.3882 9.44C18.9502 8.66 19.4532 8.565 20.1782 8.396C20.3162 8.363 20.8152 8.274 20.8982 8.471C20.9772 8.661 20.6662 8.861 20.5492 8.952C20.4182 9.056 17.4162 11.3 14.8912 14.634C12.6932 17.535 11.2552 21.341 11.2552 21.341C11.2112 21.425 10.7112 22.318 10.0412 22.362C9.42115 22.402 8.62515 21.596 8.62515 21.596C8.47215 21.453 7.72615 20.568 7.10515 19.473C6.31316 18.076 5.63215 16.421 5.63215 16.421C5.63215 16.421 4.92415 15.029 6.25815 14.263C7.57415 13.508 8.16015 14.274 8.44515 14.727C8.68915 15.114 9.18115 16.053 9.41915 16.513C9.50115 16.673 9.55515 16.762 9.59615 16.715Z" fill="#2690E5"/>
</svg>
