<svg width="24" height="24" viewBox="0 0 24 24" fill="none" xmlns="http://www.w3.org/2000/svg">
<path d="M3 13V5C3 4.46957 3.21071 3.96086 3.58579 3.58579C3.96086 3.21071 4.46957 3 5 3H19C19.5304 3 20.0391 3.21071 20.4142 3.58579C20.7893 3.96086 21 4.46957 21 5V13" stroke="#1CBCFF" stroke-width="2" stroke-miterlimit="10" stroke-linecap="square"/>
<path d="M23 17C23 18.0609 22.5786 19.0783 21.8284 19.8284C21.0783 20.5786 20.0609 21 19 21H5C3.93913 21 2.92172 20.5786 2.17157 19.8284C1.42143 19.0783 1 18.0609 1 17H23Z" stroke="#1CBCFF" stroke-width="2" stroke-miterlimit="10" stroke-linecap="square"/>
<path d="M10 7V13L15 10L10 7Z" fill="#3C99D4"/>
</svg>
